<svg xmlns="http://www.w3.org/2000/svg" version="1.1" xmlns:xlink="http://www.w3.org/1999/xlink" width="1000" height="1000"><style>
    #light-icon {
      display: inline;
    }
    #dark-icon {
      display: none;
    }

    @media (prefers-color-scheme: dark) {
      #light-icon {
        display: none;
      }
      #dark-icon {
        display: inline;
      }
    }
  </style><g id="light-icon"><svg xmlns="http://www.w3.org/2000/svg" version="1.1" xmlns:xlink="http://www.w3.org/1999/xlink" width="1000" height="1000"><g clip-path="url(#SvgjsClipPath1448)"><rect width="1000" height="1000" fill="#ffffff"></rect><g transform="matrix(5,0,0,5,0,0)"><svg xmlns="http://www.w3.org/2000/svg" version="1.1" xmlns:xlink="http://www.w3.org/1999/xlink" width="200" height="200"><svg xmlns="http://www.w3.org/2000/svg" version="1.1" xmlns:xlink="http://www.w3.org/1999/xlink" viewBox="0 0 200 200"><rect width="200" height="200" fill="url('#gradient')"></rect><defs><linearGradient id="gradient" gradientTransform="rotate(34 0.5 0.5)"><stop offset="0%" stop-color="#275c9d"></stop><stop offset="100%" stop-color="#d4faad"></stop></linearGradient><clipPath id="SvgjsClipPath1448"><rect width="1000" height="1000" x="0" y="0" rx="300" ry="300"></rect></clipPath></defs><g><g fill="#ffffff" transform="matrix(1.9645083932853717,0,0,1.9645083932853717,21.89040536943385,113.96220669277567)" stroke="#ffffff" stroke-width="0.65"><path d="M9.89-8.57L9.89-6.03L4.50-6.03L4.50-2.64L10.87-2.64L10.87 0L1.07 0L1.07-14.22L10.89-14.22L10.89-11.57L4.50-11.57L4.50-8.57L9.89-8.57ZM17.88-4.82L15.69-4.82L15.69 0L12.27 0L12.27-14.22L17.94-14.22Q19.57-14.22 20.83-13.62Q22.08-13.02 22.77-11.91Q23.46-10.80 23.46-9.39L23.46-9.39Q23.46-7.31 21.97-6.07Q20.48-4.82 17.88-4.82L17.88-4.82ZM15.69-11.57L15.69-7.47L17.94-7.47Q18.94-7.47 19.46-7.97Q19.98-8.47 19.98-9.38L19.98-9.38Q19.98-10.37 19.44-10.97Q18.91-11.56 17.98-11.57L17.98-11.57L15.69-11.57ZM32.45 0L31.62-2.66L26.92-2.66L26.10 0L22.44 0L27.66-14.22L30.88-14.22L36.13 0L32.45 0ZM29.27-10.23L27.74-5.30L30.80-5.30L29.27-10.23ZM50.97-8.57L50.97-6.03L45.58-6.03L45.58-2.64L51.94-2.64L51.94 0L42.15 0L42.15-14.22L51.96-14.22L51.96-11.57L45.58-11.57L45.58-8.57L50.97-8.57ZM60.67-3.78L60.67-3.78Q60.67-4.53 60.14-4.95Q59.61-5.37 58.27-5.82Q56.93-6.27 56.08-6.69L56.08-6.69Q53.32-8.05 53.32-10.42L53.32-10.42Q53.32-11.60 54.01-12.50Q54.70-13.41 55.96-13.91Q57.22-14.41 58.79-14.41L58.79-14.41Q60.32-14.41 61.54-13.87Q62.75-13.32 63.43-12.31Q64.10-11.30 64.10-10L64.10-10L60.68-10Q60.68-10.87 60.15-11.35Q59.62-11.83 58.71-11.83L58.71-11.83Q57.79-11.83 57.26-11.42Q56.73-11.02 56.73-10.39L56.73-10.39Q56.73-9.84 57.31-9.40Q57.90-8.96 59.38-8.48Q60.85-8.01 61.80-7.46L61.80-7.46Q64.10-6.13 64.10-3.80L64.10-3.80Q64.10-1.93 62.70-0.87Q61.29 0.20 58.84 0.20L58.84 0.20Q57.11 0.20 55.71-0.42Q54.31-1.04 53.60-2.12Q52.89-3.20 52.89-4.61L52.89-4.61L56.33-4.61Q56.33-3.47 56.92-2.92Q57.51-2.38 58.84-2.38L58.84-2.38Q59.69-2.38 60.18-2.75Q60.67-3.12 60.67-3.78ZM74.77 0L73.94-2.66L69.24-2.66L68.42 0L64.76 0L69.97-14.22L73.19-14.22L78.45 0L74.77 0ZM71.58-10.23L70.06-5.30L73.12-5.30L71.58-10.23Z"></path></g></g></svg></svg></g></g></svg></g><g id="dark-icon"><svg xmlns="http://www.w3.org/2000/svg" version="1.1" xmlns:xlink="http://www.w3.org/1999/xlink" width="1000" height="1000"><g clip-path="url(#SvgjsClipPath1449)"><rect width="1000" height="1000" fill="#ffffff"></rect><g transform="matrix(5,0,0,5,0,0)"><svg xmlns="http://www.w3.org/2000/svg" version="1.1" xmlns:xlink="http://www.w3.org/1999/xlink" width="200" height="200"><svg xmlns="http://www.w3.org/2000/svg" version="1.1" xmlns:xlink="http://www.w3.org/1999/xlink" viewBox="0 0 200 200"><rect width="200" height="200" fill="url('#gradient')"></rect><defs><linearGradient id="gradient" gradientTransform="rotate(34 0.5 0.5)"><stop offset="0%" stop-color="#275c9d"></stop><stop offset="100%" stop-color="#d4faad"></stop></linearGradient><clipPath id="SvgjsClipPath1449"><rect width="1000" height="1000" x="0" y="0" rx="300" ry="300"></rect></clipPath></defs><g><g fill="#ffffff" transform="matrix(1.9645083932853717,0,0,1.9645083932853717,21.89040536943385,113.96220669277567)" stroke="#ffffff" stroke-width="0.65"><path d="M9.89-8.57L9.89-6.03L4.50-6.03L4.50-2.64L10.87-2.64L10.87 0L1.07 0L1.07-14.22L10.89-14.22L10.89-11.57L4.50-11.57L4.50-8.57L9.89-8.57ZM17.88-4.82L15.69-4.82L15.69 0L12.27 0L12.27-14.22L17.94-14.22Q19.57-14.22 20.83-13.62Q22.08-13.02 22.77-11.91Q23.46-10.80 23.46-9.39L23.46-9.39Q23.46-7.31 21.97-6.07Q20.48-4.82 17.88-4.82L17.88-4.82ZM15.69-11.57L15.69-7.47L17.94-7.47Q18.94-7.47 19.46-7.97Q19.98-8.47 19.98-9.38L19.98-9.38Q19.98-10.37 19.44-10.97Q18.91-11.56 17.98-11.57L17.98-11.57L15.69-11.57ZM32.45 0L31.62-2.66L26.92-2.66L26.10 0L22.44 0L27.66-14.22L30.88-14.22L36.13 0L32.45 0ZM29.27-10.23L27.74-5.30L30.80-5.30L29.27-10.23ZM50.97-8.57L50.97-6.03L45.58-6.03L45.58-2.64L51.94-2.64L51.94 0L42.15 0L42.15-14.22L51.96-14.22L51.96-11.57L45.58-11.57L45.58-8.57L50.97-8.57ZM60.67-3.78L60.67-3.78Q60.67-4.53 60.14-4.95Q59.61-5.37 58.27-5.82Q56.93-6.27 56.08-6.69L56.08-6.69Q53.32-8.05 53.32-10.42L53.32-10.42Q53.32-11.60 54.01-12.50Q54.70-13.41 55.96-13.91Q57.22-14.41 58.79-14.41L58.79-14.41Q60.32-14.41 61.54-13.87Q62.75-13.32 63.43-12.31Q64.10-11.30 64.10-10L64.10-10L60.68-10Q60.68-10.87 60.15-11.35Q59.62-11.83 58.71-11.83L58.71-11.83Q57.79-11.83 57.26-11.42Q56.73-11.02 56.73-10.39L56.73-10.39Q56.73-9.84 57.31-9.40Q57.90-8.96 59.38-8.48Q60.85-8.01 61.80-7.46L61.80-7.46Q64.10-6.13 64.10-3.80L64.10-3.80Q64.10-1.93 62.70-0.87Q61.29 0.20 58.84 0.20L58.84 0.20Q57.11 0.20 55.71-0.42Q54.31-1.04 53.60-2.12Q52.89-3.20 52.89-4.61L52.89-4.61L56.33-4.61Q56.33-3.47 56.92-2.92Q57.51-2.38 58.84-2.38L58.84-2.38Q59.69-2.38 60.18-2.75Q60.67-3.12 60.67-3.78ZM74.77 0L73.94-2.66L69.24-2.66L68.42 0L64.76 0L69.97-14.22L73.19-14.22L78.45 0L74.77 0ZM71.58-10.23L70.06-5.30L73.12-5.30L71.58-10.23Z"></path></g></g></svg></svg></g></g></svg></g></svg>